<svg id="Capa_1" enable-background="new 0 0 512 512" height="512" viewBox="0 0 512 512" width="512" xmlns="http://www.w3.org/2000/svg"><g><circle cx="296" cy="180" r="10"/><circle cx="216" cy="180" r="10"/><circle cx="256" cy="502" r="10"/><path d="m183.457 324.551-40.181 5.74c-44.37 6.336-77.276 44.348-77.276 89.089v82.62c0 5.523 4.477 10 10 10h135c5.523 0 10-4.477 10-10s-4.477-10-10-10h-55v-62c0-5.523-4.477-10-10-10s-10 4.477-10 10v62h-50v-72.62c0-34.608 25.839-64.397 60.104-69.291l27.19-3.884c14.545 32.046 43.757 53.795 82.706 53.795 38.795 0 68.109-21.634 82.706-53.795l27.19 3.884c34.265 4.894 60.104 34.682 60.104 69.291v72.62h-50v-62c0-5.523-4.477-10-10-10s-10 4.477-10 10v62h-55c-5.523 0-10 4.477-10 10s4.477 10 10 10h135c5.523 0 10-4.477 10-10v-82.62c0-44.82-32.984-82.764-77.276-89.089l-40.181-5.74c-11.087-1.583-19.815-10.118-22.006-20.765 9.523-6.266 18.66-14.237 27.263-23.786h22.2c16.542 0 30-13.458 30-30v-11.006c22.795-4.646 40-24.847 40-48.994 0-24.212-17.3-44.454-40.187-49.027.16-4.465.187-8.186.187-10.973 0-72.158-58.404-130-130-130-70.863 0-130 57.44-130 130 0 .583.385 8.967.482 10.92-23.032 4.458-40.482 24.765-40.482 49.08 0 27.57 22.43 50 50 50h14.529c12.984 24.612 31.669 48.486 54.936 63.773-2.186 10.653-10.917 19.194-22.008 20.778zm134.795 18.074c-7.482 14.049-25.445 37.375-62.252 37.375s-54.77-23.325-62.252-37.375c14.038-4.491 25.069-15.51 29.773-29.237 10.69 4.385 21.568 6.612 32.479 6.612 10.91 0 21.786-2.226 32.479-6.612 4.703 13.726 15.735 24.746 29.773 29.237zm37.748-82.625h-6.574c4.22-6.203 8.328-12.939 12.025-20h4.549v10c0 5.514-4.486 10-10 10zm50-70c0 16.542-13.458 30-30 30h-5.524c5.758-14.973 9.969-31.238 12.556-48.55.503-3.385.943-6.813 1.32-10.258 12.489 3.627 21.648 15.164 21.648 28.808zm-150-170c60.581 0 110 48.938 110 110 0 9.541-.411 18.456-1.452 28.251-20.072-7.358-18.516-28.151-18.548-28.251 0-5.523-4.477-10-10-10h-35.26c-23.785 0-45.165-13.209-55.796-34.472-2.074-4.148-6.728-6.327-11.242-5.26-4.513 1.065-7.702 5.094-7.702 9.732 0 16.542-13.458 30-30 30h-20c-5.523 0-10 4.477-10 10-.031.101 1.442 20.688-18.278 28.149-.27-2.84-.509-5.772-.716-8.838-.459-6.656-.719-12.874-1.006-19.522.116-60.995 49.79-109.789 110-109.789zm-150 170c0-13.74 9.289-25.344 21.914-28.884.345 3.506.739 6.889 1.187 10.197.001.008.007.05.009.063 2.376 17.494 6.427 33.534 12.295 48.623h-5.405c-16.542.001-30-13.457-30-29.999zm44.451-11.723c17.971-4.888 31.614-19.75 34.827-38.277h10.722c19.084 0 35.706-10.748 44.129-26.508 15.334 16.719 37.081 26.508 60.611 26.508h25.98c3.211 18.549 16.859 33.403 34.849 38.285-5.832 30.211-17.216 57.17-36.992 81.715h-68.577c-5.523 0-10 4.477-10 10s4.477 10 10 9.99h49.086c-14.036 11.649-30.771 20.01-49.086 20.01-50.892 0-95.148-64.24-105.549-121.723z"/></g></svg>